# xmcd CD database file
#
# Track frame offsets:
#	180
#	33105
#	48673
#	77160
#	103117
#	119808
#	135805
#
# Disc length: 1930 seconds
#
# Revision: 0
# Processed by: cddbd v1.5.1PL0 Copyright (c) Steve Scherf et al.
# Submitted via: CDex 1.51
#
DISCID=57078807
DTITLE=Ryszard Badowski - The Stories
DYEAR=1998
DGENRE=Jazz
TTITLE0=Coming Out Of The Darkness
TTITLE1=The Prayer
TTITLE2=The Dream
TTITLE3=Do Not Go Away
TTITLE4=Invincible
TTITLE5=The Hope
TTITLE6=The Play
EXTD=YEAR: 1998
EXTT0=
EXTT1=
EXTT2=
EXTT3=
EXTT4=
EXTT5=
EXTT6=
PLAYORDER=
